<?xml version="1.0" encoding="UTF-8" standalone="no"?>
<!DOCTYPE svg PUBLIC "-//W3C//DTD SVG 1.1//EN"
 "http://www.w3.org/Graphics/SVG/1.1/DTD/svg11.dtd">
<!-- Generated by graphviz version 12.2.1 (20241206.2353)
 -->
<!-- Pages: 1 -->
<svg width="1603pt" height="210pt"
 viewBox="0.00 0.00 1603.25 210.00" xmlns="http://www.w3.org/2000/svg" xmlns:xlink="http://www.w3.org/1999/xlink">
<g id="graph0" class="graph" transform="scale(1 1) rotate(0) translate(4 206)">
<polygon fill="white" stroke="none" points="-4,4 -4,-206 1599.25,-206 1599.25,4 -4,4"/>
<!-- 2663581605392 -->
<g id="node1" class="node">
<title>2663581605392</title>
<polygon fill="none" stroke="black" points="331.5,-55.5 331.5,-91.5 550.5,-91.5 550.5,-55.5 331.5,-55.5"/>
<text text-anchor="middle" x="354.5" y="-68.7" font-family="Times New Roman,serif" font-size="14.00">x1w1</text>
<polyline fill="none" stroke="black" points="377.5,-56 377.5,-91.5"/>
<text text-anchor="middle" x="421.5" y="-68.7" font-family="Times New Roman,serif" font-size="14.00">data: &#45;6.0000</text>
<polyline fill="none" stroke="black" points="465.5,-56 465.5,-91.5"/>
<text text-anchor="middle" x="508" y="-68.7" font-family="Times New Roman,serif" font-size="14.00">grad: 2.0000</text>
</g>
<!-- 2663581605584+ -->
<g id="node7" class="node">
<title>2663581605584+</title>
<ellipse fill="none" stroke="black" cx="613.5" cy="-100.5" rx="27" ry="18"/>
<text text-anchor="middle" x="613.5" y="-95.45" font-family="Times New Roman,serif" font-size="14.00">+</text>
</g>
<!-- 2663581605392&#45;&gt;2663581605584+ -->
<g id="edge7" class="edge">
<title>2663581605392&#45;&gt;2663581605584+</title>
<path fill="none" stroke="black" d="M550.95,-90.75C559.68,-92.14 568.06,-93.46 575.67,-94.67"/>
<polygon fill="black" stroke="black" points="575.01,-98.11 585.43,-96.21 576.1,-91.19 575.01,-98.11"/>
</g>
<!-- 2663581605392* -->
<g id="node2" class="node">
<title>2663581605392*</title>
<ellipse fill="none" stroke="black" cx="268.5" cy="-73.5" rx="27" ry="18"/>
<text text-anchor="middle" x="268.5" y="-68.45" font-family="Times New Roman,serif" font-size="14.00">*</text>
</g>
<!-- 2663581605392*&#45;&gt;2663581605392 -->
<g id="edge1" class="edge">
<title>2663581605392*&#45;&gt;2663581605392</title>
<path fill="none" stroke="black" d="M295.77,-73.5C302.86,-73.5 311.02,-73.5 319.78,-73.5"/>
<polygon fill="black" stroke="black" points="319.64,-77 329.64,-73.5 319.64,-70 319.64,-77"/>
</g>
<!-- 2663581605968 -->
<g id="node3" class="node">
<title>2663581605968</title>
<polygon fill="none" stroke="black" points="1402.5,-109.5 1402.5,-145.5 1595.25,-145.5 1595.25,-109.5 1402.5,-109.5"/>
<text text-anchor="middle" x="1414.62" y="-122.7" font-family="Times New Roman,serif" font-size="14.00">L</text>
<polyline fill="none" stroke="black" points="1426.75,-110 1426.75,-145.5"/>
<text text-anchor="middle" x="1468.5" y="-122.7" font-family="Times New Roman,serif" font-size="14.00">data: 0.7071</text>
<polyline fill="none" stroke="black" points="1510.25,-110 1510.25,-145.5"/>
<text text-anchor="middle" x="1552.75" y="-122.7" font-family="Times New Roman,serif" font-size="14.00">grad: 1.0000</text>
</g>
<!-- 2663581605968tanh -->
<g id="node4" class="node">
<title>2663581605968tanh</title>
<ellipse fill="none" stroke="black" cx="1339.5" cy="-127.5" rx="27" ry="18"/>
<text text-anchor="middle" x="1339.5" y="-122.45" font-family="Times New Roman,serif" font-size="14.00">tanh</text>
</g>
<!-- 2663581605968tanh&#45;&gt;2663581605968 -->
<g id="edge2" class="edge">
<title>2663581605968tanh&#45;&gt;2663581605968</title>
<path fill="none" stroke="black" d="M1366.84,-127.5C1373.98,-127.5 1382.17,-127.5 1390.89,-127.5"/>
<polygon fill="black" stroke="black" points="1390.67,-131 1400.67,-127.5 1390.67,-124 1390.67,-131"/>
</g>
<!-- 2663581605008 -->
<g id="node5" class="node">
<title>2663581605008</title>
<polygon fill="none" stroke="black" points="2.25,-165.5 2.25,-201.5 203.25,-201.5 203.25,-165.5 2.25,-165.5"/>
<text text-anchor="middle" x="18.5" y="-178.7" font-family="Times New Roman,serif" font-size="14.00">w2</text>
<polyline fill="none" stroke="black" points="34.75,-166 34.75,-201.5"/>
<text text-anchor="middle" x="76.5" y="-178.7" font-family="Times New Roman,serif" font-size="14.00">data: 1.0000</text>
<polyline fill="none" stroke="black" points="118.25,-166 118.25,-201.5"/>
<text text-anchor="middle" x="160.75" y="-178.7" font-family="Times New Roman,serif" font-size="14.00">grad: 0.0000</text>
</g>
<!-- 2663581605200* -->
<g id="node13" class="node">
<title>2663581605200*</title>
<ellipse fill="none" stroke="black" cx="268.5" cy="-128.5" rx="27" ry="18"/>
<text text-anchor="middle" x="268.5" y="-123.45" font-family="Times New Roman,serif" font-size="14.00">*</text>
</g>
<!-- 2663581605008&#45;&gt;2663581605200* -->
<g id="edge13" class="edge">
<title>2663581605008&#45;&gt;2663581605200*</title>
<path fill="none" stroke="black" d="M178.92,-165.06C187.95,-162.4 196.98,-159.53 205.5,-156.5 215.61,-152.9 226.34,-148.34 236,-143.94"/>
<polygon fill="black" stroke="black" points="237.39,-147.15 244.97,-139.75 234.42,-140.81 237.39,-147.15"/>
</g>
<!-- 2663581605584 -->
<g id="node6" class="node">
<title>2663581605584</title>
<polygon fill="none" stroke="black" points="676.5,-82.5 676.5,-118.5 941.25,-118.5 941.25,-82.5 676.5,-82.5"/>
<text text-anchor="middle" x="722.38" y="-95.7" font-family="Times New Roman,serif" font-size="14.00">x1w1 + x2w2</text>
<polyline fill="none" stroke="black" points="768.25,-83 768.25,-118.5"/>
<text text-anchor="middle" x="812.25" y="-95.7" font-family="Times New Roman,serif" font-size="14.00">data: &#45;6.0000</text>
<polyline fill="none" stroke="black" points="856.25,-83 856.25,-118.5"/>
<text text-anchor="middle" x="898.75" y="-95.7" font-family="Times New Roman,serif" font-size="14.00">grad: 1.5000</text>
</g>
<!-- 2663581605824+ -->
<g id="node15" class="node">
<title>2663581605824+</title>
<ellipse fill="none" stroke="black" cx="1004.25" cy="-127.5" rx="27" ry="18"/>
<text text-anchor="middle" x="1004.25" y="-122.45" font-family="Times New Roman,serif" font-size="14.00">+</text>
</g>
<!-- 2663581605584&#45;&gt;2663581605824+ -->
<g id="edge14" class="edge">
<title>2663581605584&#45;&gt;2663581605824+</title>
<path fill="none" stroke="black" d="M941.53,-118.88C950.31,-120.11 958.64,-121.27 966.18,-122.32"/>
<polygon fill="black" stroke="black" points="965.44,-125.75 975.83,-123.67 966.41,-118.82 965.44,-125.75"/>
</g>
<!-- 2663581605584+&#45;&gt;2663581605584 -->
<g id="edge3" class="edge">
<title>2663581605584+&#45;&gt;2663581605584</title>
<path fill="none" stroke="black" d="M640.98,-100.5C647.96,-100.5 656.01,-100.5 664.71,-100.5"/>
<polygon fill="black" stroke="black" points="664.54,-104 674.54,-100.5 664.54,-97 664.54,-104"/>
</g>
<!-- 2663199127248 -->
<g id="node8" class="node">
<title>2663199127248</title>
<polygon fill="none" stroke="black" points="0,-55.5 0,-91.5 205.5,-91.5 205.5,-55.5 0,-55.5"/>
<text text-anchor="middle" x="16.25" y="-68.7" font-family="Times New Roman,serif" font-size="14.00">w1</text>
<polyline fill="none" stroke="black" points="32.5,-56 32.5,-91.5"/>
<text text-anchor="middle" x="76.5" y="-68.7" font-family="Times New Roman,serif" font-size="14.00">data: &#45;3.0000</text>
<polyline fill="none" stroke="black" points="120.5,-56 120.5,-91.5"/>
<text text-anchor="middle" x="163" y="-68.7" font-family="Times New Roman,serif" font-size="14.00">grad: 5.0000</text>
</g>
<!-- 2663199127248&#45;&gt;2663581605392* -->
<g id="edge12" class="edge">
<title>2663199127248&#45;&gt;2663581605392*</title>
<path fill="none" stroke="black" d="M205.59,-73.5C214.03,-73.5 222.16,-73.5 229.61,-73.5"/>
<polygon fill="black" stroke="black" points="229.53,-77 239.53,-73.5 229.53,-70 229.53,-77"/>
</g>
<!-- 2663581605632 -->
<g id="node9" class="node">
<title>2663581605632</title>
<polygon fill="none" stroke="black" points="705.75,-137.5 705.75,-173.5 912,-173.5 912,-137.5 705.75,-137.5"/>
<text text-anchor="middle" x="724.62" y="-150.7" font-family="Times New Roman,serif" font-size="14.00">bias</text>
<polyline fill="none" stroke="black" points="743.5,-138 743.5,-173.5"/>
<text text-anchor="middle" x="785.25" y="-150.7" font-family="Times New Roman,serif" font-size="14.00">data: 6.8814</text>
<polyline fill="none" stroke="black" points="827,-138 827,-173.5"/>
<text text-anchor="middle" x="869.5" y="-150.7" font-family="Times New Roman,serif" font-size="14.00">grad: 1.5000</text>
</g>
<!-- 2663581605632&#45;&gt;2663581605824+ -->
<g id="edge6" class="edge">
<title>2663581605632&#45;&gt;2663581605824+</title>
<path fill="none" stroke="black" d="M912.22,-140.68C931.57,-137.88 950.62,-135.12 966.24,-132.86"/>
<polygon fill="black" stroke="black" points="966.58,-136.35 975.98,-131.45 965.58,-129.42 966.58,-136.35"/>
</g>
<!-- 2663199127296 -->
<g id="node10" class="node">
<title>2663199127296</title>
<polygon fill="none" stroke="black" points="1.5,-0.5 1.5,-36.5 204,-36.5 204,-0.5 1.5,-0.5"/>
<text text-anchor="middle" x="16.25" y="-13.7" font-family="Times New Roman,serif" font-size="14.00">x1</text>
<polyline fill="none" stroke="black" points="31,-1 31,-36.5"/>
<text text-anchor="middle" x="72.75" y="-13.7" font-family="Times New Roman,serif" font-size="14.00">data: 2.0000</text>
<polyline fill="none" stroke="black" points="114.5,-1 114.5,-36.5"/>
<text text-anchor="middle" x="159.25" y="-13.7" font-family="Times New Roman,serif" font-size="14.00">grad: &#45;7.5000</text>
</g>
<!-- 2663199127296&#45;&gt;2663581605392* -->
<g id="edge11" class="edge">
<title>2663199127296&#45;&gt;2663581605392*</title>
<path fill="none" stroke="black" d="M175.86,-36.97C185.88,-39.94 196,-43.14 205.5,-46.5 215.47,-50.02 226.11,-54.41 235.7,-58.62"/>
<polygon fill="black" stroke="black" points="234.06,-61.72 244.61,-62.62 236.92,-55.33 234.06,-61.72"/>
</g>
<!-- 2663199127344 -->
<g id="node11" class="node">
<title>2663199127344</title>
<polygon fill="none" stroke="black" points="3.75,-110.5 3.75,-146.5 201.75,-146.5 201.75,-110.5 3.75,-110.5"/>
<text text-anchor="middle" x="18.5" y="-123.7" font-family="Times New Roman,serif" font-size="14.00">x2</text>
<polyline fill="none" stroke="black" points="33.25,-111 33.25,-146.5"/>
<text text-anchor="middle" x="75" y="-123.7" font-family="Times New Roman,serif" font-size="14.00">data: 0.0000</text>
<polyline fill="none" stroke="black" points="116.75,-111 116.75,-146.5"/>
<text text-anchor="middle" x="159.25" y="-123.7" font-family="Times New Roman,serif" font-size="14.00">grad: 2.5000</text>
</g>
<!-- 2663199127344&#45;&gt;2663581605200* -->
<g id="edge10" class="edge">
<title>2663199127344&#45;&gt;2663581605200*</title>
<path fill="none" stroke="black" d="M201.84,-128.5C211.65,-128.5 221.15,-128.5 229.72,-128.5"/>
<polygon fill="black" stroke="black" points="229.65,-132 239.65,-128.5 229.65,-125 229.65,-132"/>
</g>
<!-- 2663581605200 -->
<g id="node12" class="node">
<title>2663581605200</title>
<polygon fill="none" stroke="black" points="333.75,-110.5 333.75,-146.5 548.25,-146.5 548.25,-110.5 333.75,-110.5"/>
<text text-anchor="middle" x="356.75" y="-123.7" font-family="Times New Roman,serif" font-size="14.00">x2w2</text>
<polyline fill="none" stroke="black" points="379.75,-111 379.75,-146.5"/>
<text text-anchor="middle" x="421.5" y="-123.7" font-family="Times New Roman,serif" font-size="14.00">data: 0.0000</text>
<polyline fill="none" stroke="black" points="463.25,-111 463.25,-146.5"/>
<text text-anchor="middle" x="505.75" y="-123.7" font-family="Times New Roman,serif" font-size="14.00">grad: 2.0000</text>
</g>
<!-- 2663581605200&#45;&gt;2663581605584+ -->
<g id="edge9" class="edge">
<title>2663581605200&#45;&gt;2663581605584+</title>
<path fill="none" stroke="black" d="M548.53,-111.01C558.14,-109.43 567.36,-107.91 575.66,-106.55"/>
<polygon fill="black" stroke="black" points="575.95,-110.05 585.25,-104.98 574.81,-103.14 575.95,-110.05"/>
</g>
<!-- 2663581605200*&#45;&gt;2663581605200 -->
<g id="edge4" class="edge">
<title>2663581605200*&#45;&gt;2663581605200</title>
<path fill="none" stroke="black" d="M295.77,-128.5C303.42,-128.5 312.32,-128.5 321.87,-128.5"/>
<polygon fill="black" stroke="black" points="321.82,-132 331.82,-128.5 321.82,-125 321.82,-132"/>
</g>
<!-- 2663581605824 -->
<g id="node14" class="node">
<title>2663581605824</title>
<polygon fill="none" stroke="black" points="1067.25,-109.5 1067.25,-145.5 1276.5,-145.5 1276.5,-109.5 1067.25,-109.5"/>
<text text-anchor="middle" x="1087.62" y="-122.7" font-family="Times New Roman,serif" font-size="14.00">logit</text>
<polyline fill="none" stroke="black" points="1108,-110 1108,-145.5"/>
<text text-anchor="middle" x="1149.75" y="-122.7" font-family="Times New Roman,serif" font-size="14.00">data: 0.8814</text>
<polyline fill="none" stroke="black" points="1191.5,-110 1191.5,-145.5"/>
<text text-anchor="middle" x="1234" y="-122.7" font-family="Times New Roman,serif" font-size="14.00">grad: 1.0000</text>
</g>
<!-- 2663581605824&#45;&gt;2663581605968tanh -->
<g id="edge8" class="edge">
<title>2663581605824&#45;&gt;2663581605968tanh</title>
<path fill="none" stroke="black" d="M1276.83,-127.5C1285.26,-127.5 1293.37,-127.5 1300.79,-127.5"/>
<polygon fill="black" stroke="black" points="1300.67,-131 1310.67,-127.5 1300.67,-124 1300.67,-131"/>
</g>
<!-- 2663581605824+&#45;&gt;2663581605824 -->
<g id="edge5" class="edge">
<title>2663581605824+&#45;&gt;2663581605824</title>
<path fill="none" stroke="black" d="M1031.49,-127.5C1038.61,-127.5 1046.8,-127.5 1055.56,-127.5"/>
<polygon fill="black" stroke="black" points="1055.42,-131 1065.42,-127.5 1055.42,-124 1055.42,-131"/>
</g>
</g>
</svg>
