<?xml version="1.0" encoding="UTF-8" standalone="no"?>
<!DOCTYPE svg PUBLIC "-//W3C//DTD SVG 1.1//EN"
 "http://www.w3.org/Graphics/SVG/1.1/DTD/svg11.dtd">
<!-- Generated by graphviz version 12.2.1 (20241206.2353)
 -->
<!-- Pages: 1 -->
<svg width="3011pt" height="239pt"
 viewBox="0.00 0.00 3011.00 239.00" xmlns="http://www.w3.org/2000/svg" xmlns:xlink="http://www.w3.org/1999/xlink">
<g id="graph0" class="graph" transform="scale(1 1) rotate(0) translate(4 235)">
<polygon fill="white" stroke="none" points="-4,4 -4,-235 3007,-235 3007,4 -4,4"/>
<!-- 2110746894848 -->
<g id="node1" class="node">
<title>2110746894848</title>
<polygon fill="none" stroke="black" points="1716.75,-110.5 1716.75,-146.5 1917,-146.5 1917,-110.5 1716.75,-110.5"/>
<text text-anchor="middle" x="1730.38" y="-123.7" font-family="Times New Roman,serif" font-size="14.00">&#45;1</text>
<polyline fill="none" stroke="black" points="1744,-111 1744,-146.5"/>
<text text-anchor="middle" x="1788" y="-123.7" font-family="Times New Roman,serif" font-size="14.00">data: &#45;1.0000</text>
<polyline fill="none" stroke="black" points="1832,-111 1832,-146.5"/>
<text text-anchor="middle" x="1874.5" y="-123.7" font-family="Times New Roman,serif" font-size="14.00">grad: 0.1464</text>
</g>
<!-- 2110746895232+ -->
<g id="node24" class="node">
<title>2110746895232+</title>
<ellipse fill="none" stroke="black" cx="1980" cy="-100.5" rx="27" ry="18"/>
<text text-anchor="middle" x="1980" y="-95.45" font-family="Times New Roman,serif" font-size="14.00">+</text>
</g>
<!-- 2110746894848&#45;&gt;2110746895232+ -->
<g id="edge20" class="edge">
<title>2110746894848&#45;&gt;2110746895232+</title>
<path fill="none" stroke="black" d="M1917.17,-111.25C1926.02,-109.71 1934.56,-108.22 1942.32,-106.87"/>
<polygon fill="black" stroke="black" points="1942.69,-110.36 1951.94,-105.2 1941.49,-103.47 1942.69,-110.36"/>
</g>
<!-- 2110335701376 -->
<g id="node2" class="node">
<title>2110335701376</title>
<polygon fill="none" stroke="black" points="3.75,-84.5 3.75,-120.5 201.75,-120.5 201.75,-84.5 3.75,-84.5"/>
<text text-anchor="middle" x="18.5" y="-97.7" font-family="Times New Roman,serif" font-size="14.00">x2</text>
<polyline fill="none" stroke="black" points="33.25,-85 33.25,-120.5"/>
<text text-anchor="middle" x="75" y="-97.7" font-family="Times New Roman,serif" font-size="14.00">data: 0.0000</text>
<polyline fill="none" stroke="black" points="116.75,-85 116.75,-120.5"/>
<text text-anchor="middle" x="159.25" y="-97.7" font-family="Times New Roman,serif" font-size="14.00">grad: 0.5000</text>
</g>
<!-- 2110344337232* -->
<g id="node21" class="node">
<title>2110344337232*</title>
<ellipse fill="none" stroke="black" cx="268.5" cy="-102.5" rx="27" ry="18"/>
<text text-anchor="middle" x="268.5" y="-97.45" font-family="Times New Roman,serif" font-size="14.00">*</text>
</g>
<!-- 2110335701376&#45;&gt;2110344337232* -->
<g id="edge25" class="edge">
<title>2110335701376&#45;&gt;2110344337232*</title>
<path fill="none" stroke="black" d="M201.84,-102.5C211.65,-102.5 221.15,-102.5 229.72,-102.5"/>
<polygon fill="black" stroke="black" points="229.65,-106 239.65,-102.5 229.65,-99 229.65,-106"/>
</g>
<!-- 2110746894368 -->
<g id="node3" class="node">
<title>2110746894368</title>
<polygon fill="none" stroke="black" points="1067.25,-83.5 1067.25,-119.5 1276.5,-119.5 1276.5,-83.5 1067.25,-83.5"/>
<text text-anchor="middle" x="1087.62" y="-96.7" font-family="Times New Roman,serif" font-size="14.00">logit</text>
<polyline fill="none" stroke="black" points="1108,-84 1108,-119.5"/>
<text text-anchor="middle" x="1149.75" y="-96.7" font-family="Times New Roman,serif" font-size="14.00">data: 0.8814</text>
<polyline fill="none" stroke="black" points="1191.5,-84 1191.5,-119.5"/>
<text text-anchor="middle" x="1234" y="-96.7" font-family="Times New Roman,serif" font-size="14.00">grad: 0.5000</text>
</g>
<!-- 2110746894608* -->
<g id="node16" class="node">
<title>2110746894608*</title>
<ellipse fill="none" stroke="black" cx="1339.5" cy="-73.5" rx="27" ry="18"/>
<text text-anchor="middle" x="1339.5" y="-68.45" font-family="Times New Roman,serif" font-size="14.00">*</text>
</g>
<!-- 2110746894368&#45;&gt;2110746894608* -->
<g id="edge11" class="edge">
<title>2110746894368&#45;&gt;2110746894608*</title>
<path fill="none" stroke="black" d="M1276.83,-83.93C1285.53,-82.46 1293.9,-81.04 1301.51,-79.75"/>
<polygon fill="black" stroke="black" points="1302.02,-83.22 1311.3,-78.1 1300.86,-76.31 1302.02,-83.22"/>
</g>
<!-- 2110746894368+ -->
<g id="node4" class="node">
<title>2110746894368+</title>
<ellipse fill="none" stroke="black" cx="1004.25" cy="-101.5" rx="27" ry="18"/>
<text text-anchor="middle" x="1004.25" y="-96.45" font-family="Times New Roman,serif" font-size="14.00">+</text>
</g>
<!-- 2110746894368+&#45;&gt;2110746894368 -->
<g id="edge1" class="edge">
<title>2110746894368+&#45;&gt;2110746894368</title>
<path fill="none" stroke="black" d="M1031.49,-101.5C1038.61,-101.5 1046.8,-101.5 1055.56,-101.5"/>
<polygon fill="black" stroke="black" points="1055.42,-105 1065.42,-101.5 1055.42,-98 1055.42,-105"/>
</g>
<!-- 2110746894800 -->
<g id="node5" class="node">
<title>2110746894800</title>
<polygon fill="none" stroke="black" points="1719,-0.5 1719,-36.5 1914.75,-36.5 1914.75,-0.5 1719,-0.5"/>
<text text-anchor="middle" x="1730.38" y="-13.7" font-family="Times New Roman,serif" font-size="14.00">1</text>
<polyline fill="none" stroke="black" points="1741.75,-1 1741.75,-36.5"/>
<text text-anchor="middle" x="1783.5" y="-13.7" font-family="Times New Roman,serif" font-size="14.00">data: 1.0000</text>
<polyline fill="none" stroke="black" points="1825.25,-1 1825.25,-36.5"/>
<text text-anchor="middle" x="1870" y="-13.7" font-family="Times New Roman,serif" font-size="14.00">grad: &#45;0.1036</text>
</g>
<!-- 2110746895040+ -->
<g id="node12" class="node">
<title>2110746895040+</title>
<ellipse fill="none" stroke="black" cx="1980" cy="-45.5" rx="27" ry="18"/>
<text text-anchor="middle" x="1980" y="-40.45" font-family="Times New Roman,serif" font-size="14.00">+</text>
</g>
<!-- 2110746894800&#45;&gt;2110746895040+ -->
<g id="edge18" class="edge">
<title>2110746894800&#45;&gt;2110746895040+</title>
<path fill="none" stroke="black" d="M1914.86,-34.75C1924.46,-36.36 1933.74,-37.92 1942.11,-39.32"/>
<polygon fill="black" stroke="black" points="1941.36,-42.74 1951.8,-40.94 1942.52,-35.84 1941.36,-42.74"/>
</g>
<!-- 2110746895424 -->
<g id="node6" class="node">
<title>2110746895424</title>
<polygon fill="none" stroke="black" points="2496,-31.5 2496,-67.5 2684.25,-67.5 2684.25,-31.5 2496,-31.5"/>
<text text-anchor="middle" x="2505.88" y="-44.7" font-family="Times New Roman,serif" font-size="14.00"> </text>
<polyline fill="none" stroke="black" points="2515.75,-32 2515.75,-67.5"/>
<text text-anchor="middle" x="2557.5" y="-44.7" font-family="Times New Roman,serif" font-size="14.00">data: 0.1464</text>
<polyline fill="none" stroke="black" points="2599.25,-32 2599.25,-67.5"/>
<text text-anchor="middle" x="2641.75" y="-44.7" font-family="Times New Roman,serif" font-size="14.00">grad: 4.8284</text>
</g>
<!-- 2110746895616* -->
<g id="node14" class="node">
<title>2110746895616*</title>
<ellipse fill="none" stroke="black" cx="2747.25" cy="-72.5" rx="27" ry="18"/>
<text text-anchor="middle" x="2747.25" y="-67.45" font-family="Times New Roman,serif" font-size="14.00">*</text>
</g>
<!-- 2110746895424&#45;&gt;2110746895616* -->
<g id="edge17" class="edge">
<title>2110746895424&#45;&gt;2110746895616*</title>
<path fill="none" stroke="black" d="M2684.49,-63.34C2693.17,-64.63 2701.57,-65.88 2709.23,-67.01"/>
<polygon fill="black" stroke="black" points="2708.7,-70.47 2719.11,-68.48 2709.73,-63.55 2708.7,-70.47"/>
</g>
<!-- 2110746895424**&#45;1 -->
<g id="node7" class="node">
<title>2110746895424**&#45;1</title>
<ellipse fill="none" stroke="black" cx="2365.88" cy="-45.5" rx="27.81" ry="18"/>
<text text-anchor="middle" x="2365.88" y="-40.45" font-family="Times New Roman,serif" font-size="14.00">**&#45;1</text>
</g>
<!-- 2110746895424**&#45;1&#45;&gt;2110746895424 -->
<g id="edge2" class="edge">
<title>2110746895424**&#45;1&#45;&gt;2110746895424</title>
<path fill="none" stroke="black" d="M2394.13,-45.99C2416.93,-46.4 2451.01,-47.01 2484.32,-47.61"/>
<polygon fill="black" stroke="black" points="2484,-51.11 2494.06,-47.79 2484.13,-44.11 2484,-51.11"/>
</g>
<!-- 2110746894416 -->
<g id="node8" class="node">
<title>2110746894416</title>
<polygon fill="none" stroke="black" points="1076.25,-28.5 1076.25,-64.5 1267.5,-64.5 1267.5,-28.5 1076.25,-28.5"/>
<text text-anchor="middle" x="1087.62" y="-41.7" font-family="Times New Roman,serif" font-size="14.00">2</text>
<polyline fill="none" stroke="black" points="1099,-29 1099,-64.5"/>
<text text-anchor="middle" x="1140.75" y="-41.7" font-family="Times New Roman,serif" font-size="14.00">data: 2.0000</text>
<polyline fill="none" stroke="black" points="1182.5,-29 1182.5,-64.5"/>
<text text-anchor="middle" x="1225" y="-41.7" font-family="Times New Roman,serif" font-size="14.00">grad: 0.2203</text>
</g>
<!-- 2110746894416&#45;&gt;2110746894608* -->
<g id="edge26" class="edge">
<title>2110746894416&#45;&gt;2110746894608*</title>
<path fill="none" stroke="black" d="M1267.78,-61.97C1279.73,-63.92 1291.33,-65.81 1301.57,-67.48"/>
<polygon fill="black" stroke="black" points="1300.97,-70.93 1311.41,-69.08 1302.1,-64.02 1300.97,-70.93"/>
</g>
<!-- 2110746893984 -->
<g id="node9" class="node">
<title>2110746893984</title>
<polygon fill="none" stroke="black" points="331.5,-139.5 331.5,-175.5 550.5,-175.5 550.5,-139.5 331.5,-139.5"/>
<text text-anchor="middle" x="354.5" y="-152.7" font-family="Times New Roman,serif" font-size="14.00">x1w1</text>
<polyline fill="none" stroke="black" points="377.5,-140 377.5,-175.5"/>
<text text-anchor="middle" x="421.5" y="-152.7" font-family="Times New Roman,serif" font-size="14.00">data: &#45;6.0000</text>
<polyline fill="none" stroke="black" points="465.5,-140 465.5,-175.5"/>
<text text-anchor="middle" x="508" y="-152.7" font-family="Times New Roman,serif" font-size="14.00">grad: 0.5000</text>
</g>
<!-- 2110746894128+ -->
<g id="node19" class="node">
<title>2110746894128+</title>
<ellipse fill="none" stroke="black" cx="613.5" cy="-129.5" rx="27" ry="18"/>
<text text-anchor="middle" x="613.5" y="-124.45" font-family="Times New Roman,serif" font-size="14.00">+</text>
</g>
<!-- 2110746893984&#45;&gt;2110746894128+ -->
<g id="edge15" class="edge">
<title>2110746893984&#45;&gt;2110746894128+</title>
<path fill="none" stroke="black" d="M550.95,-139.61C559.68,-138.17 568.06,-136.8 575.67,-135.55"/>
<polygon fill="black" stroke="black" points="576.13,-139.02 585.43,-133.94 575,-132.11 576.13,-139.02"/>
</g>
<!-- 2110746893984* -->
<g id="node10" class="node">
<title>2110746893984*</title>
<ellipse fill="none" stroke="black" cx="268.5" cy="-157.5" rx="27" ry="18"/>
<text text-anchor="middle" x="268.5" y="-152.45" font-family="Times New Roman,serif" font-size="14.00">*</text>
</g>
<!-- 2110746893984*&#45;&gt;2110746893984 -->
<g id="edge3" class="edge">
<title>2110746893984*&#45;&gt;2110746893984</title>
<path fill="none" stroke="black" d="M295.77,-157.5C302.86,-157.5 311.02,-157.5 319.78,-157.5"/>
<polygon fill="black" stroke="black" points="319.64,-161 329.64,-157.5 319.64,-154 319.64,-161"/>
</g>
<!-- 2110746895040 -->
<g id="node11" class="node">
<title>2110746895040</title>
<polygon fill="none" stroke="black" points="2043,-27.5 2043,-63.5 2235.75,-63.5 2235.75,-27.5 2043,-27.5"/>
<text text-anchor="middle" x="2052.88" y="-40.7" font-family="Times New Roman,serif" font-size="14.00"> </text>
<polyline fill="none" stroke="black" points="2062.75,-28 2062.75,-63.5"/>
<text text-anchor="middle" x="2104.5" y="-40.7" font-family="Times New Roman,serif" font-size="14.00">data: 6.8284</text>
<polyline fill="none" stroke="black" points="2146.25,-28 2146.25,-63.5"/>
<text text-anchor="middle" x="2191" y="-40.7" font-family="Times New Roman,serif" font-size="14.00">grad: &#45;0.1036</text>
</g>
<!-- 2110746895040&#45;&gt;2110746895424**&#45;1 -->
<g id="edge27" class="edge">
<title>2110746895040&#45;&gt;2110746895424**&#45;1</title>
<path fill="none" stroke="black" d="M2236.23,-45.5C2267.98,-45.5 2301.52,-45.5 2326.39,-45.5"/>
<polygon fill="black" stroke="black" points="2326.34,-49 2336.34,-45.5 2326.34,-42 2326.34,-49"/>
</g>
<!-- 2110746895040+&#45;&gt;2110746895040 -->
<g id="edge4" class="edge">
<title>2110746895040+&#45;&gt;2110746895040</title>
<path fill="none" stroke="black" d="M2007.34,-45.5C2014.48,-45.5 2022.67,-45.5 2031.39,-45.5"/>
<polygon fill="black" stroke="black" points="2031.17,-49 2041.17,-45.5 2031.17,-42 2031.17,-49"/>
</g>
<!-- 2110746895616 -->
<g id="node13" class="node">
<title>2110746895616</title>
<polygon fill="none" stroke="black" points="2810.25,-54.5 2810.25,-90.5 3003,-90.5 3003,-54.5 2810.25,-54.5"/>
<text text-anchor="middle" x="2822.38" y="-67.7" font-family="Times New Roman,serif" font-size="14.00">L</text>
<polyline fill="none" stroke="black" points="2834.5,-55 2834.5,-90.5"/>
<text text-anchor="middle" x="2876.25" y="-67.7" font-family="Times New Roman,serif" font-size="14.00">data: 0.7071</text>
<polyline fill="none" stroke="black" points="2918,-55 2918,-90.5"/>
<text text-anchor="middle" x="2960.5" y="-67.7" font-family="Times New Roman,serif" font-size="14.00">grad: 1.0000</text>
</g>
<!-- 2110746895616*&#45;&gt;2110746895616 -->
<g id="edge5" class="edge">
<title>2110746895616*&#45;&gt;2110746895616</title>
<path fill="none" stroke="black" d="M2774.59,-72.5C2781.73,-72.5 2789.92,-72.5 2798.64,-72.5"/>
<polygon fill="black" stroke="black" points="2798.42,-76 2808.42,-72.5 2798.42,-69 2798.42,-76"/>
</g>
<!-- 2110746894608 -->
<g id="node15" class="node">
<title>2110746894608</title>
<polygon fill="none" stroke="black" points="1402.5,-55.5 1402.5,-91.5 1590.75,-91.5 1590.75,-55.5 1402.5,-55.5"/>
<text text-anchor="middle" x="1412.38" y="-68.7" font-family="Times New Roman,serif" font-size="14.00"> </text>
<polyline fill="none" stroke="black" points="1422.25,-56 1422.25,-91.5"/>
<text text-anchor="middle" x="1464" y="-68.7" font-family="Times New Roman,serif" font-size="14.00">data: 1.7627</text>
<polyline fill="none" stroke="black" points="1505.75,-56 1505.75,-91.5"/>
<text text-anchor="middle" x="1548.25" y="-68.7" font-family="Times New Roman,serif" font-size="14.00">grad: 0.2500</text>
</g>
<!-- 2110746894752e -->
<g id="node26" class="node">
<title>2110746894752e</title>
<ellipse fill="none" stroke="black" cx="1653.75" cy="-73.5" rx="27" ry="18"/>
<text text-anchor="middle" x="1653.75" y="-68.45" font-family="Times New Roman,serif" font-size="14.00">e</text>
</g>
<!-- 2110746894608&#45;&gt;2110746894752e -->
<g id="edge12" class="edge">
<title>2110746894608&#45;&gt;2110746894752e</title>
<path fill="none" stroke="black" d="M1590.99,-73.5C1599.4,-73.5 1607.55,-73.5 1615.02,-73.5"/>
<polygon fill="black" stroke="black" points="1614.99,-77 1624.99,-73.5 1614.99,-70 1614.99,-77"/>
</g>
<!-- 2110746894608*&#45;&gt;2110746894608 -->
<g id="edge6" class="edge">
<title>2110746894608*&#45;&gt;2110746894608</title>
<path fill="none" stroke="black" d="M1366.81,-73.5C1373.99,-73.5 1382.22,-73.5 1390.97,-73.5"/>
<polygon fill="black" stroke="black" points="1390.79,-77 1400.79,-73.5 1390.79,-70 1390.79,-77"/>
</g>
<!-- 2110335701280 -->
<g id="node17" class="node">
<title>2110335701280</title>
<polygon fill="none" stroke="black" points="2.25,-29.5 2.25,-65.5 203.25,-65.5 203.25,-29.5 2.25,-29.5"/>
<text text-anchor="middle" x="18.5" y="-42.7" font-family="Times New Roman,serif" font-size="14.00">w2</text>
<polyline fill="none" stroke="black" points="34.75,-30 34.75,-65.5"/>
<text text-anchor="middle" x="76.5" y="-42.7" font-family="Times New Roman,serif" font-size="14.00">data: 1.0000</text>
<polyline fill="none" stroke="black" points="118.25,-30 118.25,-65.5"/>
<text text-anchor="middle" x="160.75" y="-42.7" font-family="Times New Roman,serif" font-size="14.00">grad: 0.0000</text>
</g>
<!-- 2110335701280&#45;&gt;2110344337232* -->
<g id="edge13" class="edge">
<title>2110335701280&#45;&gt;2110344337232*</title>
<path fill="none" stroke="black" d="M175.86,-65.97C185.88,-68.94 196,-72.14 205.5,-75.5 215.47,-79.02 226.11,-83.41 235.7,-87.62"/>
<polygon fill="black" stroke="black" points="234.06,-90.72 244.61,-91.62 236.92,-84.33 234.06,-90.72"/>
</g>
<!-- 2110746894128 -->
<g id="node18" class="node">
<title>2110746894128</title>
<polygon fill="none" stroke="black" points="676.5,-111.5 676.5,-147.5 941.25,-147.5 941.25,-111.5 676.5,-111.5"/>
<text text-anchor="middle" x="722.38" y="-124.7" font-family="Times New Roman,serif" font-size="14.00">x1w1 + x2w2</text>
<polyline fill="none" stroke="black" points="768.25,-112 768.25,-147.5"/>
<text text-anchor="middle" x="812.25" y="-124.7" font-family="Times New Roman,serif" font-size="14.00">data: &#45;6.0000</text>
<polyline fill="none" stroke="black" points="856.25,-112 856.25,-147.5"/>
<text text-anchor="middle" x="898.75" y="-124.7" font-family="Times New Roman,serif" font-size="14.00">grad: 0.5000</text>
</g>
<!-- 2110746894128&#45;&gt;2110746894368+ -->
<g id="edge24" class="edge">
<title>2110746894128&#45;&gt;2110746894368+</title>
<path fill="none" stroke="black" d="M937.51,-111.02C947.78,-109.53 957.53,-108.12 966.23,-106.86"/>
<polygon fill="black" stroke="black" points="966.49,-110.36 975.88,-105.46 965.48,-103.43 966.49,-110.36"/>
</g>
<!-- 2110746894128+&#45;&gt;2110746894128 -->
<g id="edge7" class="edge">
<title>2110746894128+&#45;&gt;2110746894128</title>
<path fill="none" stroke="black" d="M640.98,-129.5C647.96,-129.5 656.01,-129.5 664.71,-129.5"/>
<polygon fill="black" stroke="black" points="664.54,-133 674.54,-129.5 664.54,-126 664.54,-133"/>
</g>
<!-- 2110344337232 -->
<g id="node20" class="node">
<title>2110344337232</title>
<polygon fill="none" stroke="black" points="333.75,-84.5 333.75,-120.5 548.25,-120.5 548.25,-84.5 333.75,-84.5"/>
<text text-anchor="middle" x="356.75" y="-97.7" font-family="Times New Roman,serif" font-size="14.00">x2w2</text>
<polyline fill="none" stroke="black" points="379.75,-85 379.75,-120.5"/>
<text text-anchor="middle" x="421.5" y="-97.7" font-family="Times New Roman,serif" font-size="14.00">data: 0.0000</text>
<polyline fill="none" stroke="black" points="463.25,-85 463.25,-120.5"/>
<text text-anchor="middle" x="505.75" y="-97.7" font-family="Times New Roman,serif" font-size="14.00">grad: 0.5000</text>
</g>
<!-- 2110344337232&#45;&gt;2110746894128+ -->
<g id="edge14" class="edge">
<title>2110344337232&#45;&gt;2110746894128+</title>
<path fill="none" stroke="black" d="M548.53,-119.37C558.02,-120.87 567.15,-122.32 575.38,-123.62"/>
<polygon fill="black" stroke="black" points="574.82,-127.08 585.24,-125.18 575.91,-120.16 574.82,-127.08"/>
</g>
<!-- 2110344337232*&#45;&gt;2110344337232 -->
<g id="edge8" class="edge">
<title>2110344337232*&#45;&gt;2110344337232</title>
<path fill="none" stroke="black" d="M295.77,-102.5C303.42,-102.5 312.32,-102.5 321.87,-102.5"/>
<polygon fill="black" stroke="black" points="321.82,-106 331.82,-102.5 321.82,-99 321.82,-106"/>
</g>
<!-- 2110746894176 -->
<g id="node22" class="node">
<title>2110746894176</title>
<polygon fill="none" stroke="black" points="705.75,-56.5 705.75,-92.5 912,-92.5 912,-56.5 705.75,-56.5"/>
<text text-anchor="middle" x="724.62" y="-69.7" font-family="Times New Roman,serif" font-size="14.00">bias</text>
<polyline fill="none" stroke="black" points="743.5,-57 743.5,-92.5"/>
<text text-anchor="middle" x="785.25" y="-69.7" font-family="Times New Roman,serif" font-size="14.00">data: 6.8814</text>
<polyline fill="none" stroke="black" points="827,-57 827,-92.5"/>
<text text-anchor="middle" x="869.5" y="-69.7" font-family="Times New Roman,serif" font-size="14.00">grad: 0.5000</text>
</g>
<!-- 2110746894176&#45;&gt;2110746894368+ -->
<g id="edge19" class="edge">
<title>2110746894176&#45;&gt;2110746894368+</title>
<path fill="none" stroke="black" d="M912.22,-88.79C931.57,-91.49 950.62,-94.15 966.24,-96.33"/>
<polygon fill="black" stroke="black" points="965.59,-99.78 975.98,-97.69 966.56,-92.84 965.59,-99.78"/>
</g>
<!-- 2110746895232 -->
<g id="node23" class="node">
<title>2110746895232</title>
<polygon fill="none" stroke="black" points="2271.75,-82.5 2271.75,-118.5 2460,-118.5 2460,-82.5 2271.75,-82.5"/>
<text text-anchor="middle" x="2281.62" y="-95.7" font-family="Times New Roman,serif" font-size="14.00"> </text>
<polyline fill="none" stroke="black" points="2291.5,-83 2291.5,-118.5"/>
<text text-anchor="middle" x="2333.25" y="-95.7" font-family="Times New Roman,serif" font-size="14.00">data: 4.8284</text>
<polyline fill="none" stroke="black" points="2375,-83 2375,-118.5"/>
<text text-anchor="middle" x="2417.5" y="-95.7" font-family="Times New Roman,serif" font-size="14.00">grad: 0.1464</text>
</g>
<!-- 2110746895232&#45;&gt;2110746895616* -->
<g id="edge16" class="edge">
<title>2110746895232&#45;&gt;2110746895616*</title>
<path fill="none" stroke="black" d="M2460.28,-93.93C2523.51,-89.44 2608.92,-83.27 2684.25,-77.5 2692.14,-76.9 2700.58,-76.23 2708.63,-75.58"/>
<polygon fill="black" stroke="black" points="2708.81,-79.08 2718.5,-74.79 2708.25,-72.1 2708.81,-79.08"/>
</g>
<!-- 2110746895232+&#45;&gt;2110746895232 -->
<g id="edge9" class="edge">
<title>2110746895232+&#45;&gt;2110746895232</title>
<path fill="none" stroke="black" d="M2007.39,-100.5C2058.61,-100.5 2174.05,-100.5 2259.97,-100.5"/>
<polygon fill="black" stroke="black" points="2259.84,-104 2269.84,-100.5 2259.84,-97 2259.84,-104"/>
</g>
<!-- 2110746894752 -->
<g id="node25" class="node">
<title>2110746894752</title>
<polygon fill="none" stroke="black" points="1721.62,-55.5 1721.62,-91.5 1912.12,-91.5 1912.12,-55.5 1721.62,-55.5"/>
<text text-anchor="middle" x="1732.62" y="-68.7" font-family="Times New Roman,serif" font-size="14.00">e</text>
<polyline fill="none" stroke="black" points="1743.62,-56 1743.62,-91.5"/>
<text text-anchor="middle" x="1785.38" y="-68.7" font-family="Times New Roman,serif" font-size="14.00">data: 5.8284</text>
<polyline fill="none" stroke="black" points="1827.12,-56 1827.12,-91.5"/>
<text text-anchor="middle" x="1869.62" y="-68.7" font-family="Times New Roman,serif" font-size="14.00">grad: 0.0429</text>
</g>
<!-- 2110746894752&#45;&gt;2110746895040+ -->
<g id="edge23" class="edge">
<title>2110746894752&#45;&gt;2110746895040+</title>
<path fill="none" stroke="black" d="M1912.53,-57.05C1923.01,-55.23 1933.16,-53.47 1942.25,-51.89"/>
<polygon fill="black" stroke="black" points="1942.76,-55.35 1952.02,-50.19 1941.57,-48.45 1942.76,-55.35"/>
</g>
<!-- 2110746894752&#45;&gt;2110746895232+ -->
<g id="edge28" class="edge">
<title>2110746894752&#45;&gt;2110746895232+</title>
<path fill="none" stroke="black" d="M1912.53,-89.36C1923.01,-91.12 1933.16,-92.82 1942.25,-94.34"/>
<polygon fill="black" stroke="black" points="1941.57,-97.78 1952.02,-95.98 1942.73,-90.87 1941.57,-97.78"/>
</g>
<!-- 2110746894752e&#45;&gt;2110746894752 -->
<g id="edge10" class="edge">
<title>2110746894752e&#45;&gt;2110746894752</title>
<path fill="none" stroke="black" d="M1681,-73.5C1689.47,-73.5 1699.44,-73.5 1710.06,-73.5"/>
<polygon fill="black" stroke="black" points="1709.82,-77 1719.82,-73.5 1709.82,-70 1709.82,-77"/>
</g>
<!-- 2110335701424 -->
<g id="node27" class="node">
<title>2110335701424</title>
<polygon fill="none" stroke="black" points="0,-194.5 0,-230.5 205.5,-230.5 205.5,-194.5 0,-194.5"/>
<text text-anchor="middle" x="16.25" y="-207.7" font-family="Times New Roman,serif" font-size="14.00">w1</text>
<polyline fill="none" stroke="black" points="32.5,-195 32.5,-230.5"/>
<text text-anchor="middle" x="76.5" y="-207.7" font-family="Times New Roman,serif" font-size="14.00">data: &#45;3.0000</text>
<polyline fill="none" stroke="black" points="120.5,-195 120.5,-230.5"/>
<text text-anchor="middle" x="163" y="-207.7" font-family="Times New Roman,serif" font-size="14.00">grad: 1.0000</text>
</g>
<!-- 2110335701424&#45;&gt;2110746893984* -->
<g id="edge22" class="edge">
<title>2110335701424&#45;&gt;2110746893984*</title>
<path fill="none" stroke="black" d="M178.92,-194.06C187.95,-191.4 196.98,-188.53 205.5,-185.5 215.61,-181.9 226.34,-177.34 236,-172.94"/>
<polygon fill="black" stroke="black" points="237.39,-176.15 244.97,-168.75 234.42,-169.81 237.39,-176.15"/>
</g>
<!-- 2110335713232 -->
<g id="node28" class="node">
<title>2110335713232</title>
<polygon fill="none" stroke="black" points="1.5,-139.5 1.5,-175.5 204,-175.5 204,-139.5 1.5,-139.5"/>
<text text-anchor="middle" x="16.25" y="-152.7" font-family="Times New Roman,serif" font-size="14.00">x1</text>
<polyline fill="none" stroke="black" points="31,-140 31,-175.5"/>
<text text-anchor="middle" x="72.75" y="-152.7" font-family="Times New Roman,serif" font-size="14.00">data: 2.0000</text>
<polyline fill="none" stroke="black" points="114.5,-140 114.5,-175.5"/>
<text text-anchor="middle" x="159.25" y="-152.7" font-family="Times New Roman,serif" font-size="14.00">grad: &#45;1.5000</text>
</g>
<!-- 2110335713232&#45;&gt;2110746893984* -->
<g id="edge21" class="edge">
<title>2110335713232&#45;&gt;2110746893984*</title>
<path fill="none" stroke="black" d="M204.19,-157.5C213.25,-157.5 221.98,-157.5 229.92,-157.5"/>
<polygon fill="black" stroke="black" points="229.79,-161 239.79,-157.5 229.79,-154 229.79,-161"/>
</g>
</g>
</svg>
