<?xml version="1.0" encoding="UTF-8" standalone="no"?>
<!DOCTYPE svg PUBLIC "-//W3C//DTD SVG 1.1//EN"
 "http://www.w3.org/Graphics/SVG/1.1/DTD/svg11.dtd">
<!-- Generated by graphviz version 12.2.1 (20241206.2353)
 -->
<!-- Pages: 1 -->
<svg width="474pt" height="320pt"
 viewBox="0.00 0.00 474.17 320.00" xmlns="http://www.w3.org/2000/svg" xmlns:xlink="http://www.w3.org/1999/xlink">
<g id="graph0" class="graph" transform="scale(1 1) rotate(0) translate(4 316)">
<polygon fill="white" stroke="none" points="-4,4 -4,-316 470.17,-316 470.17,4 -4,4"/>
<!-- 2906646323568 -->
<g id="node1" class="node">
<title>2906646323568</title>
<polygon fill="none" stroke="black" points="157.03,-55.5 157.03,-91.5 246.78,-91.5 246.78,-55.5 157.03,-55.5"/>
<text text-anchor="middle" x="168.03" y="-68.7" font-family="Times New Roman,serif" font-size="14.00">a</text>
<polyline fill="none" stroke="black" points="179.03,-56 179.03,-91.5"/>
<text text-anchor="middle" x="212.91" y="-68.7" font-family="Times New Roman,serif" font-size="14.00">data: &#45;2.0</text>
</g>
<!-- 2906646323808* -->
<g id="node11" class="node">
<title>2906646323808*</title>
<ellipse fill="none" stroke="black" cx="389.74" cy="-46.5" rx="75.41" ry="18"/>
<text text-anchor="middle" x="389.74" y="-41.45" font-family="Times New Roman,serif" font-size="14.00">2906646323808*</text>
</g>
<!-- 2906646323568&#45;&gt;2906646323808* -->
<g id="edge4" class="edge">
<title>2906646323568&#45;&gt;2906646323808*</title>
<path fill="none" stroke="black" d="M246.95,-67.1C266.78,-64.22 290.77,-60.73 313.32,-57.46"/>
<polygon fill="black" stroke="black" points="313.72,-60.94 323.11,-56.04 312.71,-54.01 313.72,-60.94"/>
</g>
<!-- 2906234862176 -->
<g id="node2" class="node">
<title>2906234862176</title>
<polygon fill="none" stroke="black" points="0,-110.5 0,-146.5 90.5,-146.5 90.5,-110.5 0,-110.5"/>
<text text-anchor="middle" x="11.38" y="-123.7" font-family="Times New Roman,serif" font-size="14.00">b</text>
<polyline fill="none" stroke="black" points="22.75,-111 22.75,-146.5"/>
<text text-anchor="middle" x="56.62" y="-123.7" font-family="Times New Roman,serif" font-size="14.00">data: &#45;3.0</text>
</g>
<!-- 2906646323520* -->
<g id="node13" class="node">
<title>2906646323520*</title>
<ellipse fill="none" stroke="black" cx="201.91" cy="-128.5" rx="75.41" ry="18"/>
<text text-anchor="middle" x="201.91" y="-123.45" font-family="Times New Roman,serif" font-size="14.00">2906646323520*</text>
</g>
<!-- 2906234862176&#45;&gt;2906646323520* -->
<g id="edge7" class="edge">
<title>2906234862176&#45;&gt;2906646323520*</title>
<path fill="none" stroke="black" d="M90.98,-128.5C98.59,-128.5 106.71,-128.5 114.96,-128.5"/>
<polygon fill="black" stroke="black" points="114.75,-132 124.75,-128.5 114.75,-125 114.75,-132"/>
</g>
<!-- 2906234863568 -->
<g id="node3" class="node">
<title>2906234863568</title>
<polygon fill="none" stroke="black" points="2.62,-55.5 2.62,-91.5 87.88,-91.5 87.88,-55.5 2.62,-55.5"/>
<text text-anchor="middle" x="13.62" y="-68.7" font-family="Times New Roman,serif" font-size="14.00">c</text>
<polyline fill="none" stroke="black" points="24.62,-56 24.62,-91.5"/>
<text text-anchor="middle" x="56.25" y="-68.7" font-family="Times New Roman,serif" font-size="14.00">data: 2.0</text>
</g>
<!-- 2906234863568&#45;&gt;2906646323520* -->
<g id="edge8" class="edge">
<title>2906234863568&#45;&gt;2906646323520*</title>
<path fill="none" stroke="black" d="M88.1,-88.38C106.52,-94.93 128.36,-102.7 147.9,-109.65"/>
<polygon fill="black" stroke="black" points="146.46,-112.85 157.06,-112.91 148.81,-106.26 146.46,-112.85"/>
</g>
<!-- 2906646323520 -->
<g id="node4" class="node">
<title>2906646323520</title>
<polygon fill="none" stroke="black" points="156.66,-165.5 156.66,-201.5 247.16,-201.5 247.16,-165.5 156.66,-165.5"/>
<text text-anchor="middle" x="168.03" y="-178.7" font-family="Times New Roman,serif" font-size="14.00">d</text>
<polyline fill="none" stroke="black" points="179.41,-166 179.41,-201.5"/>
<text text-anchor="middle" x="213.28" y="-178.7" font-family="Times New Roman,serif" font-size="14.00">data: &#45;6.0</text>
</g>
<!-- 2906646323712+ -->
<g id="node12" class="node">
<title>2906646323712+</title>
<ellipse fill="none" stroke="black" cx="389.74" cy="-210.5" rx="76.43" ry="18"/>
<text text-anchor="middle" x="389.74" y="-205.45" font-family="Times New Roman,serif" font-size="14.00">2906646323712+</text>
</g>
<!-- 2906646323520&#45;&gt;2906646323712+ -->
<g id="edge6" class="edge">
<title>2906646323520&#45;&gt;2906646323712+</title>
<path fill="none" stroke="black" d="M247.42,-189.97C266.98,-192.81 290.52,-196.23 312.73,-199.46"/>
<polygon fill="black" stroke="black" points="311.95,-202.88 322.35,-200.85 312.95,-195.95 311.95,-202.88"/>
</g>
<!-- 2906646323520_op -->
<g id="node5" class="node">
<title>2906646323520_op</title>
<ellipse fill="none" stroke="black" cx="45.25" cy="-183.5" rx="27" ry="18"/>
<text text-anchor="middle" x="45.25" y="-178.45" font-family="Times New Roman,serif" font-size="14.00">*</text>
</g>
<!-- 2906646323520_op&#45;&gt;2906646323520 -->
<g id="edge1" class="edge">
<title>2906646323520_op&#45;&gt;2906646323520</title>
<path fill="none" stroke="black" d="M72.49,-183.5C92.28,-183.5 120.15,-183.5 144.87,-183.5"/>
<polygon fill="black" stroke="black" points="144.82,-187 154.82,-183.5 144.82,-180 144.82,-187"/>
</g>
<!-- 2906234861408 -->
<g id="node6" class="node">
<title>2906234861408</title>
<polygon fill="none" stroke="black" points="155.91,-220.5 155.91,-256.5 247.91,-256.5 247.91,-220.5 155.91,-220.5"/>
<text text-anchor="middle" x="166.91" y="-233.7" font-family="Times New Roman,serif" font-size="14.00">e</text>
<polyline fill="none" stroke="black" points="177.91,-221 177.91,-256.5"/>
<text text-anchor="middle" x="212.91" y="-233.7" font-family="Times New Roman,serif" font-size="14.00">data: 10.0</text>
</g>
<!-- 2906234861408&#45;&gt;2906646323712+ -->
<g id="edge9" class="edge">
<title>2906234861408&#45;&gt;2906646323712+</title>
<path fill="none" stroke="black" d="M248.37,-231.65C267.86,-228.71 291.16,-225.2 313.12,-221.89"/>
<polygon fill="black" stroke="black" points="313.59,-225.36 322.96,-220.41 312.55,-218.44 313.59,-225.36"/>
</g>
<!-- 2906646323712 -->
<g id="node7" class="node">
<title>2906646323712</title>
<polygon fill="none" stroke="black" points="160.03,-0.5 160.03,-36.5 243.78,-36.5 243.78,-0.5 160.03,-0.5"/>
<text text-anchor="middle" x="170.28" y="-13.7" font-family="Times New Roman,serif" font-size="14.00">f</text>
<polyline fill="none" stroke="black" points="180.53,-1 180.53,-36.5"/>
<text text-anchor="middle" x="212.16" y="-13.7" font-family="Times New Roman,serif" font-size="14.00">data: 4.0</text>
</g>
<!-- 2906646323712&#45;&gt;2906646323808* -->
<g id="edge5" class="edge">
<title>2906646323712&#45;&gt;2906646323808*</title>
<path fill="none" stroke="black" d="M244.15,-24.71C264.64,-27.8 290.05,-31.63 313.83,-35.21"/>
<polygon fill="black" stroke="black" points="313.07,-38.64 323.48,-36.67 314.11,-31.72 313.07,-38.64"/>
</g>
<!-- 2906646323712_op -->
<g id="node8" class="node">
<title>2906646323712_op</title>
<ellipse fill="none" stroke="black" cx="45.25" cy="-18.5" rx="27" ry="18"/>
<text text-anchor="middle" x="45.25" y="-13.45" font-family="Times New Roman,serif" font-size="14.00">+</text>
</g>
<!-- 2906646323712_op&#45;&gt;2906646323712 -->
<g id="edge2" class="edge">
<title>2906646323712_op&#45;&gt;2906646323712</title>
<path fill="none" stroke="black" d="M72.49,-18.5C93.19,-18.5 122.73,-18.5 148.26,-18.5"/>
<polygon fill="black" stroke="black" points="148.15,-22 158.15,-18.5 148.15,-15 148.15,-22"/>
</g>
<!-- 2906646323808 -->
<g id="node9" class="node">
<title>2906646323808</title>
<polygon fill="none" stroke="black" points="155.91,-275.5 155.91,-311.5 247.91,-311.5 247.91,-275.5 155.91,-275.5"/>
<text text-anchor="middle" x="168.03" y="-288.7" font-family="Times New Roman,serif" font-size="14.00">L</text>
<polyline fill="none" stroke="black" points="180.16,-276 180.16,-311.5"/>
<text text-anchor="middle" x="214.03" y="-288.7" font-family="Times New Roman,serif" font-size="14.00">data: &#45;8.0</text>
</g>
<!-- 2906646323808_op -->
<g id="node10" class="node">
<title>2906646323808_op</title>
<ellipse fill="none" stroke="black" cx="45.25" cy="-293.5" rx="27" ry="18"/>
<text text-anchor="middle" x="45.25" y="-288.45" font-family="Times New Roman,serif" font-size="14.00">*</text>
</g>
<!-- 2906646323808_op&#45;&gt;2906646323808 -->
<g id="edge3" class="edge">
<title>2906646323808_op&#45;&gt;2906646323808</title>
<path fill="none" stroke="black" d="M72.49,-293.5C92.05,-293.5 119.52,-293.5 144.03,-293.5"/>
<polygon fill="black" stroke="black" points="143.9,-297 153.9,-293.5 143.9,-290 143.9,-297"/>
</g>
</g>
</svg>
